# xmcd
#
# Track frame offsets:
#	150
#	19978
#	37819
#	54395
#	70152
#	89343
#	108168
#	127395
#	142800
#	162045
#	172887
#	187000
#
# Disc length: 2767 seconds
#
# Revision: 2
# Processed by: cddbd v1.5PL3 Copyright (c) Steve Scherf et al.
# Submitted via: audiograbber 1.83.01
#
DISCID=9a0acd0c
DTITLE=Briskeby - Tonight, Captain
DYEAR=2003
DGENRE=Rock
TTITLE0=Rebel against your own rules
TTITLE1=Hey baby
TTITLE2=Ten stories high
TTITLE3=Valentine
TTITLE4=Hallelujah
TTITLE5=Sweet sensation
TTITLE6=End of summer
TTITLE7=Trying to lose you
TTITLE8=Dancing
TTITLE9=Get lost
TTITLE10=The mess we are in
TTITLE11=The electric field
EXTD=
EXTT0=
EXTT1=
EXTT2=
EXTT3=
EXTT4=
EXTT5=
EXTT6=
EXTT7=
EXTT8=
EXTT9=
EXTT10=
EXTT11=
PLAYORDER=
